# xmcd
#
# Track frame offsets: 
#        150
#        17521
#        38262
#        57506
#        73362
#        89102
#        102399
#        117808
#        141237
#        174213
#        192273
#
# Disc length: 2794 seconds
#
# Revision: 0
# Processed by: cddbd v1.5.2PL0 Copyright (c) Steve Scherf et al.
# Submitted via: ExactAudioCopy v0.99pb5
#
DISCID=960ae80b
DTITLE=Spaleny Jan and ASPM - Zprava odeslana
DYEAR=2010
DGENRE=Blues
TTITLE0=Rozmluva se psem
TTITLE1=Kapitan slunce
TTITLE2=Masle z hory
TTITLE3=Dny, ktere nemam
TTITLE4=Je tady nekde?
TTITLE5=Vzdycky, kdyz se stmiva
TTITLE6=Zatim hodne pus
TTITLE7=Kristyna
TTITLE8=Slanska
TTITLE9=Kdyby nebylo nebe
TTITLE10=Snutne mam te rad
EXTD=
EXTT0=
EXTT1=
EXTT2=
EXTT3=
EXTT4=
EXTT5=
EXTT6=
EXTT7=
EXTT8=
EXTT9=
EXTT10=
PLAYORDER=
